<svg xmlns="http://www.w3.org/2000/svg" viewBox="0 0 64 64">
  <defs>
    <linearGradient id="bgGradient" x1="0%" y1="0%" x2="100%" y2="100%">
      <stop offset="0%" style="stop-color:#667eea;stop-opacity:1" />
      <stop offset="100%" style="stop-color:#764ba2;stop-opacity:1" />
    </linearGradient>
    <linearGradient id="truckGradient" x1="0%" y1="0%" x2="100%" y2="100%">
      <stop offset="0%" style="stop-color:#ffffff;stop-opacity:1" />
      <stop offset="100%" style="stop-color:#f8f9fa;stop-opacity:1" />
    </linearGradient>
  </defs>
  
  <!-- Background Circle -->
  <circle cx="32" cy="32" r="30" fill="url(#bgGradient)" stroke="#fff" stroke-width="4"/>
  
  <!-- Truck Body (main cargo area) -->
  <rect x="10" y="28" width="24" height="12" fill="url(#truckGradient)" rx="2" stroke="#333" stroke-width="1"/>
  
  <!-- Truck Cabin -->
  <rect x="34" y="24" width="12" height="16" fill="url(#truckGradient)" rx="2" stroke="#333" stroke-width="1"/>
  
  <!-- Windshield -->
  <rect x="36" y="26" width="8" height="6" fill="#87ceeb" rx="1"/>
  
  <!-- Wheels -->
  <circle cx="18" cy="44" r="4" fill="#333"/>
  <circle cx="18" cy="44" r="2" fill="#666"/>
  <circle cx="42" cy="44" r="4" fill="#333"/>
  <circle cx="42" cy="44" r="2" fill="#666"/>
  
  <!-- Fuel Drop Symbol -->
  <ellipse cx="22" cy="18" rx="3" ry="4" fill="#28a745"/>
  <circle cx="22" cy="15" r="1.5" fill="#28a745"/>
  
  <!-- Stats Bars (Analytics) -->
  <rect x="48" y="16" width="2" height="4" fill="#ffd700"/>
  <rect x="51" y="14" width="2" height="6" fill="#ffd700"/>
  <rect x="54" y="12" width="2" height="8" fill="#ffd700"/>
  
  <!-- Speed lines -->
  <path d="M52 28 L58 28 M51 31 L56 31 M53 34 L58 34" stroke="#28a745" stroke-width="2" stroke-linecap="round"/>
</svg>
